1900 0 4 0           
10 Cubit 12.2 17 ACIS 19.0.2 Linux 24 Wed May  6 16:13:27 2015 
1 9.9999999999999995e-07 1e-10 
body $4 -1 -1 $-1 $5 $-1 $6 T -1 -1 10 1 1 30 #
body $7 -1 -1 $-1 $8 $-1 $9 T -1 -1 -40 1 1 -10 #
body $10 -1 -1 $-1 $11 $-1 $12 T -1 -1 -10 1 1 10 #
body $13 -1 -1 $-1 $14 $-1 $15 T -1.0000307268445634 -3.0726844564586076e-05 -20.976207684109884 1.0000307268445707 21 20.976207690247598 #
integer_attrib-name_attrib-gen-attrib $-1 -1 $16 $-1 $0 2 1 1 1 1 1 1 1 1 1 1 1 1 1 0 1 1 1 @8 CUBIT_ID 1 #
lump $17 -1 -1 $-1 $-1 $18 $0 T -1 -1 10 1 1 30 #
transform $-1 -1 1 0 0 0 1 0 0 0 1 0 0 0 1 no_rotate no_reflect no_shear #
integer_attrib-name_attrib-gen-attrib $-1 -1 $19 $-1 $1 2 1 1 1 1 1 1 1 1 1 1 1 1 1 0 1 1 1 @8 CUBIT_ID 2 #
lump $20 -1 -1 $-1 $-1 $21 $1 T -1 -1 -40 1 1 -10 #
transform $-1 -1 1 0 0 0 1 0 0 0 1 0 0 0 1 no_rotate no_reflect no_shear #
integer_attrib-name_attrib-gen-attrib $-1 -1 $22 $-1 $2 2 1 1 1 1 1 1 1 1 1 1 1 1 1 0 1 1 1 @8 CUBIT_ID 3 #
lump $23 -1 -1 $-1 $-1 $24 $2 T -1 -1 -10 1 1 10 #
transform $-1 -1 1 0 0 0 1 0 0 0 1 0 0 0 1 no_rotate no_reflect no_shear #
integer_attrib-name_attrib-gen-attrib $-1 -1 $25 $-1 $3 2 1 1 1 1 1 1 1 1 1 1 1 1 1 0 1 1 1 @8 CUBIT_ID 4 #
lump $26 -1 -1 $-1 $-1 $27 $3 T -1.0000307268445634 -3.0726844564586076e-05 -20.976207684109884 1.0000307268445707 21 20.976207690247598 #
transform $-1 -1 1 0 0 0 1 0 0 0 1 0 0 0 1 no_rotate no_reflect no_shear #
simple-snl-attrib $-1 -1 $-1 $4 $0 1 1 1 1 1 1 1 1 1 1 1 1 0 1 0 1 1 1 @17 NEW_SIMPLE_ATTRIB 1 @9 ENTITY_ID 0 3 1 -2147483648 -1 #
integer_attrib-name_attrib-gen-attrib $-1 -1 $28 $-1 $5 2 1 1 1 1 1 1 1 1 1 1 1 1 1 0 1 1 1 @8 CUBIT_ID 1 #
shell $-1 -1 -1 $-1 $-1 $-1 $29 $-1 $5 T -1 -1 10 1 1 30 #
simple-snl-attrib $-1 -1 $-1 $7 $1 1 1 1 1 1 1 1 1 1 1 1 1 0 1 0 1 1 1 @17 NEW_SIMPLE_ATTRIB 1 @9 ENTITY_ID 0 3 2 -2147483648 -1 #
integer_attrib-name_attrib-gen-attrib $-1 -1 $30 $-1 $8 2 1 1 1 1 1 1 1 1 1 1 1 1 1 0 1 1 1 @8 CUBIT_ID 2 #
shell $-1 -1 -1 $-1 $-1 $-1 $31 $-1 $8 T -1 -1 -40 1 1 -10 #
simple-snl-attrib $-1 -1 $-1 $10 $2 1 1 1 1 1 1 1 1 1 1 1 1 0 1 0 1 1 1 @17 NEW_SIMPLE_ATTRIB 1 @9 ENTITY_ID 0 3 3 -2147483648 -1 #
integer_attrib-name_attrib-gen-attrib $-1 -1 $32 $-1 $11 2 1 1 1 1 1 1 1 1 1 1 1 1 1 0 1 1 1 @8 CUBIT_ID 3 #
shell $-1 -1 -1 $-1 $-1 $-1 $33 $-1 $11 T -1 -1 -10 1 1 10 #
simple-snl-attrib $-1 -1 $-1 $13 $3 1 1 1 1 1 1 1 1 1 1 1 1 0 1 0 1 1 1 @17 NEW_SIMPLE_ATTRIB 1 @9 ENTITY_ID 0 3 4 -2147483648 -1 #
integer_attrib-name_attrib-gen-attrib $-1 -1 $34 $-1 $14 2 1 1 1 1 1 1 1 1 1 1 1 1 1 0 1 1 1 @8 CUBIT_ID 4 #
shell $-1 -1 -1 $-1 $-1 $-1 $35 $-1 $14 T -1.0000307268445634 -3.0726844564586076e-05 -20.976207684109884 1.0000307268445707 21 20.976207690247598 #
simple-snl-attrib $-1 -1 $36 $17 $5 1 1 1 1 1 1 1 1 1 1 1 1 0 1 0 1 1 1 @17 NEW_SIMPLE_ATTRIB 1 @9 ENTITY_ID 0 3 1 -2147483648 -1 #
face $37 -1 -1 $-1 $38 $39 $18 $-1 $40 forward single T -1.0000307207068624 -1 10 1.0000307207068697 1.0005194046771342 30 F #
simple-snl-attrib $-1 -1 $41 $20 $8 1 1 1 1 1 1 1 1 1 1 1 1 0 1 0 1 1 1 @17 NEW_SIMPLE_ATTRIB 1 @9 ENTITY_ID 0 3 2 -2147483648 -1 #
face $42 -1 -1 $-1 $43 $44 $21 $-1 $45 forward single T -1.0000307207068575 -1 -40 1.0000307207068502 1.0005194046771104 -10 F #
simple-snl-attrib $-1 -1 $46 $23 $11 1 1 1 1 1 1 1 1 1 1 1 1 0 1 0 1 1 1 @17 NEW_SIMPLE_ATTRIB 1 @9 ENTITY_ID 0 3 3 -2147483648 -1 #
face $47 -1 -1 $-1 $48 $49 $24 $-1 $50 reversed single T -1 -1 10 1 1 10 F #
simple-snl-attrib $-1 -1 $51 $26 $14 1 1 1 1 1 1 1 1 1 1 1 1 0 1 0 1 1 1 @17 NEW_SIMPLE_ATTRIB 1 @9 ENTITY_ID 0 3 4 -2147483648 -1 #
face $52 -1 -1 $-1 $53 $54 $27 $-1 $55 reversed single T -1.0000307207068575 -3.0720706853801576e-05 -20.976207684109884 1.0000307207068502 1.0005194046771104 -18.973119744104167 F #
simple-snl-attrib $-1 -1 $56 $28 $5 1 1 1 1 1 1 1 1 1 1 1 1 0 1 0 1 1 1 @17 NEW_SIMPLE_ATTRIB 3 @5 GROUP @5 Water @9 time:10 s 0 11 2 2 3 1494511759 2003041211 0 0 0 0 0 0 #
integer_attrib-name_attrib-gen-attrib $-1 -1 $57 $-1 $29 2 1 1 1 1 1 1 1 1 1 1 1 1 1 0 1 1 1 @8 CUBIT_ID 13 #
face $58 -1 -1 $-1 $59 $60 $18 $-1 $40 forward single T -1.0000307207068624 -3.0720706863507354e-05 18.973119744104142 1.0000307207068697 1.0005194046771342 20.976207684109898 F #
loop $-1 -1 -1 $-1 $61 $62 $29 T -1 -1 30 1 1 30 unknown #
cone-surface $-1 -1 -1 $-1 0 0 20 0 0 1 1 0 0 1 I I 0 1 1 forward I I I I #
simple-snl-attrib $-1 -1 $63 $30 $8 1 1 1 1 1 1 1 1 1 1 1 1 0 1 0 1 1 1 @17 NEW_SIMPLE_ATTRIB 3 @5 GROUP @5 Water @9 time:20 s 0 11 2 2 4 1494511759 592484075 1 0 0 0 0 0 #
integer_attrib-name_attrib-gen-attrib $-1 -1 $64 $-1 $31 2 1 1 1 1 1 1 1 1 1 1 1 1 1 0 1 1 1 @8 CUBIT_ID 15 #
face $65 -1 -1 $-1 $66 $67 $21 $-1 $68 forward single T -1 -1 -40 1 1 -40 F #
loop $-1 -1 -1 $-1 $69 $70 $31 T -1 -1 -10 1 1 -10 unknown #
cone-surface $-1 -1 -1 $-1 0 0 10 0 0 1 1 0 0 1 I I 0 1 1 forward I I I I #
simple-snl-attrib $-1 -1 $71 $32 $11 1 1 1 1 1 1 1 1 1 1 1 1 0 1 0 1 1 1 @17 NEW_SIMPLE_ATTRIB 3 @5 GROUP @5 Water @9 time:15 s 0 11 2 2 5 1494511759 1586509570 2 0 0 0 0 0 #
integer_attrib-name_attrib-gen-attrib $-1 -1 $72 $-1 $33 2 1 1 1 1 1 1 1 1 1 1 1 1 1 0 1 1 1 @8 CUBIT_ID 2 #
face $73 -1 -1 $-1 $74 $75 $24 $-1 $76 forward single T -1 -1 -10 1 1 10 F #
loop $-1 -1 -1 $-1 $-1 $77 $33 T -1 -1 10 1 1 10 unknown #
plane-surface $-1 -1 -1 $-1 -1 0 10 0 -0 -1 -1 0 -0 forward_v I I I I #
simple-snl-attrib $-1 -1 $78 $34 $14 1 1 1 1 1 1 1 1 1 1 1 1 0 1 0 1 1 1 @17 NEW_SIMPLE_ATTRIB 3 @5 GROUP @5 Water @9 time:34 s 0 11 2 2 6 1494511759 1110518757 3 0 0 0 0 0 #
integer_attrib-name_attrib-gen-attrib $-1 -1 $79 $-1 $35 2 1 1 1 1 1 1 1 1 1 1 1 1 1 0 1 1 1 @8 CUBIT_ID 10 #
face $80 -1 -1 $-1 $81 $82 $27 $-1 $83 forward single T -1.0000307268445634 -3.0726844564586076e-05 -20.976207684109884 1.0000307268445707 21 20.976207690247598 F #
loop $-1 -1 -1 $-1 $-1 $84 $35 T -1.0000307207068575 -3.0720706853801576e-05 -20.976207684109884 1.0000307207068502 1.0005194046771104 -18.973119744104167 unknown #
cone-surface $-1 -1 -1 $-1 0 0 10 0 0 1 1 0 0 1 I I 0 1 1 forward I I I I #
simple-snl-attrib $-1 -1 $85 $36 $5 1 1 1 1 1 1 1 1 1 1 1 1 0 1 0 1 1 1 @17 NEW_SIMPLE_ATTRIB 7 @16 GRAPHICS_OPTIONS @14 geometry color @10 mesh color @19 geometry visibility @15 mesh visibility @11 render mode @11 transparent 0 6 4 4 1 1 0 0 #
simple-snl-attrib $-1 -1 $86 $37 $29 1 1 1 1 1 1 1 1 1 1 1 1 0 1 0 1 1 1 @17 NEW_SIMPLE_ATTRIB 1 @9 ENTITY_ID 0 3 13 -2147483648 -1 #
integer_attrib-name_attrib-gen-attrib $-1 -1 $87 $-1 $38 2 1 1 1 1 1 1 1 1 1 1 1 1 1 0 1 1 1 @8 CUBIT_ID 12 #
face $88 -1 -1 $-1 $89 $90 $18 $-1 $91 forward single T -1 -1 10 1 1 10 F #
loop $-1 -1 -1 $-1 $-1 $92 $38 T -1.0000307207068624 -3.0720706863507354e-05 18.973119744104142 1.0000307207068697 1.0005194046771342 20.976207684109898 unknown #
loop $-1 -1 -1 $-1 $93 $94 $29 T -1 -1 10 1 1 10 unknown #
coedge $-1 -1 -1 $-1 $62 $62 $95 $96 reversed $39 $-1 #
simple-snl-attrib $-1 -1 $97 $41 $8 1 1 1 1 1 1 1 1 1 1 1 1 0 1 0 1 1 1 @17 NEW_SIMPLE_ATTRIB 7 @16 GRAPHICS_OPTIONS @14 geometry color @10 mesh color @19 geometry visibility @15 mesh visibility @11 render mode @11 transparent 0 6 5 5 1 1 0 0 #
simple-snl-attrib $-1 -1 $98 $42 $31 1 1 1 1 1 1 1 1 1 1 1 1 0 1 0 1 1 1 @17 NEW_SIMPLE_ATTRIB 1 @9 ENTITY_ID 0 3 15 -2147483648 -1 #
integer_attrib-name_attrib-gen-attrib $-1 -1 $99 $-1 $43 2 1 1 1 1 1 1 1 1 1 1 1 1 1 0 1 1 1 @8 CUBIT_ID 4 #
face $100 -1 -1 $-1 $101 $102 $21 $-1 $103 reversed single T -1 -1 -10 1 1 -10 F #
loop $-1 -1 -1 $-1 $-1 $104 $43 T -1 -1 -40 1 1 -40 unknown #
plane-surface $-1 -1 -1 $-1 0 0 -40 0 0 -1 -1 0 0 forward_v I I I I #
loop $-1 -1 -1 $-1 $105 $106 $31 T -1 -1 -40 1 1 -40 unknown #
coedge $-1 -1 -1 $-1 $70 $70 $107 $108 reversed $44 $-1 #
simple-snl-attrib $-1 -1 $109 $46 $11 1 1 1 1 1 1 1 1 1 1 1 1 0 1 0 1 1 1 @17 NEW_SIMPLE_ATTRIB 7 @16 GRAPHICS_OPTIONS @14 geometry color @10 mesh color @19 geometry visibility @15 mesh visibility @11 render mode @11 transparent 0 6 6 6 1 1 0 0 #
simple-snl-attrib $-1 -1 $110 $47 $33 1 1 1 1 1 1 1 1 1 1 1 1 0 1 0 1 1 1 @17 NEW_SIMPLE_ATTRIB 1 @9 UNIQUE_ID 1 0 1 343224888 #
integer_attrib-name_attrib-gen-attrib $-1 -1 $111 $-1 $48 2 1 1 1 1 1 1 1 1 1 1 1 1 1 0 1 1 1 @8 CUBIT_ID 9 #
face $112 -1 -1 $-1 $-1 $113 $24 $-1 $114 forward single T -1 -1 -10 1 1 -10 F #
loop $-1 -1 -1 $-1 $115 $116 $48 T -1 -1 -10 1 1 -10 unknown #
cone-surface $-1 -1 -1 $-1 0 0 10 0 0 1 1 0 0 1 I I 0 1 1 forward I I I I #
coedge $-1 -1 -1 $-1 $117 $117 $118 $119 forward $49 $-1 #
simple-snl-attrib $-1 -1 $120 $51 $14 1 1 1 1 1 1 1 1 1 1 1 1 0 1 0 1 1 1 @17 NEW_SIMPLE_ATTRIB 7 @16 GRAPHICS_OPTIONS @14 geometry color @10 mesh color @19 geometry visibility @15 mesh visibility @11 render mode @11 transparent 0 6 7 7 1 1 0 0 #
simple-snl-attrib $-1 -1 $121 $52 $35 1 1 1 1 1 1 1 1 1 1 1 1 0 1 0 1 1 1 @17 NEW_SIMPLE_ATTRIB 1 @9 UNIQUE_ID 1 0 1 875897672 #
integer_attrib-name_attrib-gen-attrib $-1 -1 $122 $-1 $53 2 1 1 1 1 1 1 1 1 1 1 1 1 1 0 1 1 1 @8 CUBIT_ID 11 #
face $123 -1 -1 $-1 $-1 $124 $27 $-1 $125 reversed single T -1.0000307268445634 -3.0726844564586076e-05 18.973119646649323 1.0000307268445707 1.0005194971336016 20.976207690247598 F #
loop $-1 -1 -1 $-1 $126 $127 $53 T -1.0000307207068575 -3.0720706853801576e-05 -20.976207684109884 1.0000307207068502 1.0005194046771104 -18.973119744104167 v_sep $83 F #
torus-surface $-1 -1 -1 $-1 0 0 0 1 0 -1.8369701987210294e-16 20 1 -1.8369701987210294e-16 0 -1 forward_v I I I I #
coedge $-1 -1 -1 $-1 $128 $128 $127 $129 reversed $54 $-1 #
simple-snl-attrib $-1 -1 $-1 $56 $5 1 1 1 1 1 1 1 1 1 1 1 1 0 1 0 1 1 1 @17 NEW_SIMPLE_ATTRIB 2 @11 ENTITY_NAME @7 Water@A 0 0 #
simple-snl-attrib $-1 -1 $-1 $57 $29 1 1 1 1 1 1 1 1 1 1 1 1 0 1 0 1 1 1 @17 NEW_SIMPLE_ATTRIB 3 @13 MESH_INTERVAL @4 LIMP @4 LIMP 2 1 0 5 1 0 0 1 1 #
simple-snl-attrib $-1 -1 $130 $58 $38 1 1 1 1 1 1 1 1 1 1 1 1 0 1 0 1 1 1 @17 NEW_SIMPLE_ATTRIB 1 @9 UNIQUE_ID 1 0 1 699136089 #
integer_attrib-name_attrib-gen-attrib $-1 -1 $131 $-1 $59 2 1 1 1 1 1 1 1 1 1 1 1 1 1 0 1 1 1 @8 CUBIT_ID 2 #
face $132 -1 -1 $-1 $-1 $133 $18 $-1 $134 forward single T -1 -1 30 1 1 30 F #
loop $-1 -1 -1 $-1 $-1 $135 $59 T -1 -1 10 1 1 10 unknown #
plane-surface $-1 -1 -1 $-1 0 0 10 0 0 -1 -1 0 0 forward_v I I I I #
coedge $-1 -1 -1 $-1 $136 $136 $137 $138 forward $60 $-1 #
loop $-1 -1 -1 $-1 $-1 $137 $29 T -1.0000307207068624 -3.0720706863507354e-05 18.973119744104142 1.0000307207068697 1.0005194046771342 20.976207684109898 unknown #
coedge $-1 -1 -1 $-1 $139 $139 $135 $140 reversed $61 $-1 #
coedge $-1 -1 -1 $-1 $95 $95 $62 $96 forward $133 $-1 #
edge $141 -1 -1 $-1 $142 0 $142 6.2831853071795862 $95 $143 forward @7 unknown T -1 -1 30 1 1 30 #
simple-snl-attrib $-1 -1 $-1 $63 $8 1 1 1 1 1 1 1 1 1 1 1 1 0 1 0 1 1 1 @17 NEW_SIMPLE_ATTRIB 2 @11 ENTITY_NAME @7 Water@B 0 0 #
simple-snl-attrib $-1 -1 $-1 $64 $31 1 1 1 1 1 1 1 1 1 1 1 1 0 1 0 1 1 1 @17 NEW_SIMPLE_ATTRIB 3 @13 MESH_INTERVAL @4 LIMP @4 LIMP 2 1 0 5 1 0 0 1 1 #
simple-snl-attrib $-1 -1 $144 $65 $43 1 1 1 1 1 1 1 1 1 1 1 1 0 1 0 1 1 1 @17 NEW_SIMPLE_ATTRIB 1 @9 ENTITY_ID 0 3 4 -2147483648 -1 #
integer_attrib-name_attrib-gen-attrib $-1 -1 $145 $-1 $66 2 1 1 1 1 1 1 1 1 1 1 1 1 1 0 1 1 1 @8 CUBIT_ID 5 #
face $146 -1 -1 $-1 $-1 $147 $21 $-1 $45 forward single T -1.0000307207068575 -3.0720706853801576e-05 -20.976207684109884 1.0000307207068502 1.0005194046771104 -18.973119744104167 F #
loop $-1 -1 -1 $-1 $-1 $107 $66 T -1 -1 -10 1 1 -10 unknown #
plane-surface $-1 -1 -1 $-1 -1 0 -10 0 -0 -1 -1 0 -0 forward_v I I I I #
coedge $-1 -1 -1 $-1 $104 $104 $106 $148 forward $67 $-1 #
loop $-1 -1 -1 $-1 $-1 $149 $31 T -1.0000307207068575 -3.0720706853801576e-05 -20.976207684109884 1.0000307207068502 1.0005194046771104 -18.973119744104167 unknown #
coedge $-1 -1 -1 $-1 $106 $106 $104 $148 reversed $69 $-1 #
coedge $-1 -1 -1 $-1 $107 $107 $70 $108 forward $102 $-1 #
edge $150 -1 -1 $-1 $151 -3.1415926535897931 $151 3.1415926535897931 $70 $152 forward @7 unknown T -1 -1 -10 1 1 -10 #
simple-snl-attrib $-1 -1 $-1 $71 $11 1 1 1 1 1 1 1 1 1 1 1 1 0 1 0 1 1 1 @17 NEW_SIMPLE_ATTRIB 2 @11 ENTITY_NAME @7 Water@C 0 0 #
simple-snl-attrib $-1 -1 $153 $72 $33 1 1 1 1 1 1 1 1 1 1 1 1 0 1 0 1 1 1 @17 NEW_SIMPLE_ATTRIB 1 @9 ENTITY_ID 0 3 2 145754622 0 #
simple-snl-attrib $-1 -1 $154 $73 $48 1 1 1 1 1 1 1 1 1 1 1 1 0 1 0 1 1 1 @17 NEW_SIMPLE_ATTRIB 1 @9 ENTITY_ID 0 3 9 -2147483648 -1 #
integer_attrib-name_attrib-gen-attrib $-1 -1 $155 $-1 $74 2 1 1 1 1 1 1 1 1 1 1 1 1 1 0 1 1 1 @8 CUBIT_ID 5 #
loop $-1 -1 -1 $-1 $-1 $156 $74 T -1 -1 -10 1 1 -10 unknown #
plane-surface $-1 -1 -1 $-1 -1 0 -10 0 -0 -1 -1 0 -0 forward_v I I I I #
loop $-1 -1 -1 $-1 $-1 $118 $48 T -1 -1 10 1 1 10 unknown #
coedge $-1 -1 -1 $-1 $116 $116 $156 $157 forward $75 $-1 #
coedge $-1 -1 -1 $-1 $77 $77 $158 $159 forward $49 $-1 #
coedge $-1 -1 -1 $-1 $158 $158 $77 $119 reversed $115 $-1 #
edge $160 -1 -1 $-1 $161 -3.1415926535897931 $162 0 $118 $163 forward @7 unknown T -1 -1 10 1 0 10 #
simple-snl-attrib $-1 -1 $-1 $78 $14 1 1 1 1 1 1 1 1 1 1 1 1 0 1 0 1 1 1 @17 NEW_SIMPLE_ATTRIB 2 @11 ENTITY_NAME @7 Water@D 0 0 #
simple-snl-attrib $-1 -1 $164 $79 $35 1 1 1 1 1 1 1 1 1 1 1 1 0 1 0 1 1 1 @17 NEW_SIMPLE_ATTRIB 1 @9 ENTITY_ID 0 3 10 512787678 1 #
simple-snl-attrib $-1 -1 $165 $80 $53 1 1 1 1 1 1 1 1 1 1 1 1 0 1 0 1 1 1 @17 NEW_SIMPLE_ATTRIB 1 @9 ENTITY_ID 0 3 11 -2147483648 -1 #
integer_attrib-name_attrib-gen-attrib $-1 -1 $166 $-1 $81 2 1 1 1 1 1 1 1 1 1 1 1 1 1 0 1 1 1 @8 CUBIT_ID 12 #
loop $-1 -1 -1 $-1 $-1 $167 $81 T -1.0000307268445634 -3.0726844564586076e-05 18.973119646649323 1.0000307268445707 1.0005194971336016 20.976207690247598 unknown #
cone-surface $-1 -1 -1 $-1 0 0 20 0 0 1 1 0 0 1 I I 0 1 1 forward I I I I #
loop $-1 -1 -1 $-1 $-1 $168 $53 T -1.0000307268445634 -3.0726844564586076e-05 18.973119646649323 1.0000307268445707 1.0005194971336016 20.976207690247598 v_sep $83 F #
coedge $-1 -1 -1 $-1 $169 $169 $84 $129 forward $82 $-1 #
coedge $-1 -1 -1 $-1 $84 $84 $169 $170 reversed $54 $-1 #
edge $171 -1 -1 $-1 $172 -3.9335345091685849 $173 0.026980733897035945 $127 $174 forward @7 unknown T -1.0000307207068575 -3.0720706853801576e-05 -20.976207684109884 1.0000307207068502 1.0000307207068539 -19.999969279293147 #
simple-snl-attrib $-1 -1 $175 $87 $38 1 1 1 1 1 1 1 1 1 1 1 1 0 1 0 1 1 1 @17 NEW_SIMPLE_ATTRIB 1 @9 ENTITY_ID 0 3 12 1519008226 1 #
simple-snl-attrib $-1 -1 $176 $88 $59 1 1 1 1 1 1 1 1 1 1 1 1 0 1 0 1 1 1 @17 NEW_SIMPLE_ATTRIB 1 @9 UNIQUE_ID 1 0 1 343224888 #
integer_attrib-name_attrib-gen-attrib $-1 -1 $177 $-1 $89 2 1 1 1 1 1 1 1 1 1 1 1 1 1 0 1 1 1 @8 CUBIT_ID 3 #
loop $-1 -1 -1 $-1 $-1 $95 $89 T -1 -1 30 1 1 30 unknown #
plane-surface $-1 -1 -1 $-1 0 0 30 0 0 1 1 0 0 forward_v I I I I #
coedge $-1 -1 -1 $-1 $178 $178 $94 $140 forward $90 $-1 #
coedge $-1 -1 -1 $-1 $92 $92 $179 $180 forward $60 $-1 #
coedge $-1 -1 -1 $-1 $179 $179 $92 $138 reversed $93 $-1 #
edge $181 -1 -1 $-1 $182 -3.9335345091730742 $183 0.026980733897066022 $92 $184 forward @7 unknown T -1.0000307207068624 -3.0720706863507354e-05 19.999969279293133 1.0000307207068697 1.0000307207068737 20.976207684109898 #
coedge $-1 -1 -1 $-1 $94 $94 $178 $185 reversed $61 $-1 #
edge $186 -1 -1 $-1 $187 0 $188 3.1415926535897931 $135 $189 forward @7 unknown T -1 -1 10 1 0 10 #
integer_attrib-name_attrib-gen-attrib $-1 -1 $190 $-1 $96 2 1 1 1 1 1 1 1 1 1 1 1 1 1 0 1 1 1 @8 CUBIT_ID 2 #
vertex $191 -1 -1 $-1 $96 $192 #
ellipse-curve $-1 -1 -1 $-1 0 0 30 0 0 1 1 0 0 1 I I #
simple-snl-attrib $-1 -1 $-1 $99 $43 1 1 1 1 1 1 1 1 1 1 1 1 0 1 0 1 1 1 @17 NEW_SIMPLE_ATTRIB 3 @13 MESH_INTERVAL @4 LIMP @4 LIMP 2 1 0 5 1 0 0 1 1 #
simple-snl-attrib $-1 -1 $193 $100 $66 1 1 1 1 1 1 1 1 1 1 1 1 0 1 0 1 1 1 @17 NEW_SIMPLE_ATTRIB 1 @9 UNIQUE_ID 1 0 1 679782684 #
integer_attrib-name_attrib-gen-attrib $-1 -1 $194 $-1 $101 2 1 1 1 1 1 1 1 1 1 1 1 1 1 0 1 1 1 @8 CUBIT_ID 10 #
loop $-1 -1 -1 $-1 $-1 $195 $101 T -1.0000307207068575 -3.0720706853801576e-05 -20.976207684109884 1.0000307207068502 1.0005194046771104 -18.973119744104167 unknown #
edge $196 -1 -1 $-1 $197 0 $197 6.2831853071795862 $104 $198 forward @7 unknown T -1 -1 -40 1 1 -40 #
coedge $-1 -1 -1 $-1 $199 $199 $195 $200 reversed $105 $-1 #
integer_attrib-name_attrib-gen-attrib $-1 -1 $201 $-1 $108 2 1 1 1 1 1 1 1 1 1 1 1 1 1 0 1 1 1 @8 CUBIT_ID 4 #
vertex $202 -1 -1 $-1 $108 $203 #
ellipse-curve $-1 -1 -1 $-1 0 0 -10 -0 0 1 1 0 0 1 I I #
simple-snl-attrib $-1 -1 $204 $110 $33 1 1 1 1 1 1 1 1 1 1 1 1 0 1 0 1 1 1 @17 NEW_SIMPLE_ATTRIB 1 @13 MERGE_PARTNER 0 4 343224888 -1 8 0 #
simple-snl-attrib $-1 -1 $-1 $111 $48 1 1 1 1 1 1 1 1 1 1 1 1 0 1 0 1 1 1 @17 NEW_SIMPLE_ATTRIB 3 @13 MESH_INTERVAL @4 LIMP @4 LIMP 2 1 0 5 1 0 0 1 1 #
simple-snl-attrib $-1 -1 $205 $112 $74 1 1 1 1 1 1 1 1 1 1 1 1 0 1 0 1 1 1 @17 NEW_SIMPLE_ATTRIB 1 @9 UNIQUE_ID 1 0 1 679782684 #
coedge $-1 -1 -1 $-1 $156 $156 $116 $157 reversed $113 $-1 #
edge $206 -1 -1 $-1 $207 -3.1415926535897931 $207 3.1415926535897931 $116 $208 forward @7 unknown T -1 -1 -10 1 1 -10 #
coedge $-1 -1 -1 $-1 $118 $118 $117 $159 reversed $115 $-1 #
edge $209 -1 -1 $-1 $162 0 $161 3.1415926535897931 $158 $210 forward @7 unknown T -1 -1.224646799147353e-16 10 1 1 10 #
integer_attrib-name_attrib-gen-attrib $-1 -1 $211 $-1 $119 2 1 1 1 1 1 1 1 1 1 1 1 1 1 0 1 1 1 @8 CUBIT_ID 11 #
vertex $212 -1 -1 $-1 $159 $213 #
vertex $214 -1 -1 $-1 $159 $215 #
ellipse-curve $-1 -1 -1 $-1 0 0 10 -0 0 1 1 0 0 1 I I #
simple-snl-attrib $-1 -1 $216 $121 $35 1 1 1 1 1 1 1 1 1 1 1 1 0 1 0 1 1 1 @17 NEW_SIMPLE_ATTRIB 1 @13 MERGE_PARTNER 0 4 875897672 1 40 1 #
simple-snl-attrib $-1 -1 $-1 $122 $53 1 1 1 1 1 1 1 1 1 1 1 1 0 1 0 1 1 1 @17 NEW_SIMPLE_ATTRIB 3 @13 MESH_INTERVAL @4 LIMP @4 LIMP 2 1 0 5 1 0 0 1 1 #
simple-snl-attrib $-1 -1 $217 $123 $81 1 1 1 1 1 1 1 1 1 1 1 1 0 1 0 1 1 1 @17 NEW_SIMPLE_ATTRIB 1 @9 UNIQUE_ID 1 0 1 699136089 #
coedge $-1 -1 -1 $-1 $218 $218 $168 $219 reversed $124 $-1 #
coedge $-1 -1 -1 $-1 $220 $220 $167 $219 forward $126 $-1 #
coedge $-1 -1 -1 $-1 $127 $127 $128 $170 forward $82 $-1 #
edge $221 -1 -1 $-1 $173 -4.0759281544672543 $172 0.026946877628593276 $169 $222 forward @7 unknown T -1.0000236590758917 -2.3659075888013167e-05 -20.00002365907589 1.0000236590758844 1.0005194046771104 -18.973119744104167 #
integer_attrib-name_attrib-gen-attrib $-1 -1 $223 $-1 $129 2 1 1 1 1 1 1 1 1 1 1 1 1 1 0 1 1 1 @8 CUBIT_ID 7 #
vertex $224 -1 -1 $-1 $129 $225 #
vertex $226 -1 -1 $-1 $129 $227 #
intcurve-curve $-1 -1 -1 $-1 forward { surfintcur full nubs 3 open 13 
	-3.9335345091685849 3 -3.9065537752727364 2 -3.2354254368383368 2 -2.8072806422248688 2 -2.3786272727133659 2 
	-2.1227629222105735 2 -1.9532768876368778 2 -1.7837908530631879 2 -1.5279265025604365 2 -1.0992731330483783 2 
	-0.67112833843365372 2 -0 2 0.026980733897035945 3 
	0.99999999999999634 0 -20 
	0.99999999999999634 0.0063594199662090492 -20.006359419966209 
	0.99993933667127222 0.012720499762137924 -20.012717466320826 
	0.9967976292883769 0.17732978659977117 -20.177169920813206 
	0.95614348807238181 0.33840301725227206 -20.336101682355832 
	0.82108736273684413 0.58095332694122281 -20.572959032611461 
	0.75065067571817212 0.67141768265746204 -20.660651248224099 
	0.57121192387877118 0.82947514760502461 -20.813092571561285 
	0.46852917473023054 0.8914070721990569 -20.872420424720275 
	0.29127711896763925 0.9592657024860507 -20.937316363766449 
	0.22095570286525723 0.97810233697938342 -20.955290563022775 
	0.098956044994008951 0.99630490226160062 -20.972654671314153 
	0.049631853193313917 1.0000000000000002 -20.976176963403031 
	-0.049631853193319996 0.99999999999999978 -20.976176963403031 
	-0.09895604499401349 0.99630490226160084 -20.972654671314157 
	-0.22095570286526486 0.97810233697938198 -20.955290563022775 
	-0.29127711896764513 0.95926570248604959 -20.937316363766453 
	-0.46852917473042388 0.89140707219898074 -20.872420424720207 
	-0.57121192387893582 0.8294751476048825 -20.813092571561153 
	-0.75065067571818433 0.67141768265744783 -20.660651248224095 
	-0.82108736273685512 0.58095332694120838 -20.572959032611458 
	-0.9561434880720634 0.3384030172528345 -20.336101682356404 
	-0.9967976292882742 0.17732978660543658 -20.177169920816077 
	-0.99993933667128254 0.01272049976158688 -20.012717466320787 
	-1.0000000000000038 0.0063594199666612942 -20.00635941996666 
	-1.0000000000000038 0 -20 
	3.0720706853801576e-05 
	cone 0 0 10 0 0 1 1 0 0 1 I I 0 1 1 forward I I I I 
	torus 0 0 0 1 0 -1.8369701987210294e-16 20 1 -1.8369701987210294e-16 0 -1 forward_v I I I I 
	nullbs 
	nullbs 
	-1 
	-1 
	F -3.9065537752727364 F -0 
	0 
	2 -3.9065537752727364 -0 
	0 
	
	-1 
	none F } I I #
simple-snl-attrib $-1 -1 $228 $130 $38 1 1 1 1 1 1 1 1 1 1 1 1 0 1 0 1 1 1 @17 NEW_SIMPLE_ATTRIB 1 @13 MERGE_PARTNER 0 4 699136089 -1 14 0 #
simple-snl-attrib $-1 -1 $229 $131 $59 1 1 1 1 1 1 1 1 1 1 1 1 0 1 0 1 1 1 @17 NEW_SIMPLE_ATTRIB 1 @9 ENTITY_ID 0 3 2 145754622 0 #
simple-snl-attrib $-1 -1 $230 $132 $89 1 1 1 1 1 1 1 1 1 1 1 1 0 1 0 1 1 1 @17 NEW_SIMPLE_ATTRIB 1 @9 ENTITY_ID 0 3 3 -2147483648 -1 #
coedge $-1 -1 -1 $-1 $135 $135 $139 $185 forward $90 $-1 #
coedge $-1 -1 -1 $-1 $137 $137 $136 $180 reversed $93 $-1 #
edge $231 -1 -1 $-1 $183 -4.0759281545128481 $182 0.026946877628656163 $136 $232 forward @7 unknown T -1.0000236590759066 -2.3659075907847138e-05 18.973119744104142 1.0000236590759142 1.0005194046771342 20.000023659075911 #
integer_attrib-name_attrib-gen-attrib $-1 -1 $233 $-1 $138 2 1 1 1 1 1 1 1 1 1 1 1 1 1 0 1 1 1 @8 CUBIT_ID 9 #
vertex $234 -1 -1 $-1 $138 $235 #
vertex $236 -1 -1 $-1 $138 $237 #
intcurve-curve $-1 -1 -1 $-1 forward { surfintcur full nubs 3 open 13 
	-3.9335345091730742 3 -3.9065537752770738 2 -3.2354254368397877 2 -2.8072806422243923 2 -2.3786272727122642 2 
	-2.1227629222098305 2 -1.9532768876365045 2 -1.7837908530631947 2 -1.5279265025608151 2 -1.09927313304893 2 
	-0.67112833843396091 2 -0 2 0.026980733897066022 3 
	-0.99999999999999634 2.4492935982947061e-15 20 
	-0.99999999999999634 0.0063594199662222583 20.00635941996622 
	-0.99993933667127222 0.012720499762128544 20.012717466320826 
	-0.99679762928837456 0.17732978659986026 20.177169920813249 
	-0.95614348807237859 0.33840301725227961 20.336101682355839 
	-0.82108736273684035 0.58095332694123314 20.572959032611472 
	-0.75065067571816768 0.6714176826574636 20.660651248224102 
	-0.57121192387904607 0.82947514760478014 20.81309257156105 
	-0.46852917473055788 0.89140707219893522 20.872420424720154 
	-0.29127711896763336 0.95926570248605625 20.937316363766449 
	-0.2209557028652544 0.97810233697938553 20.955290563022775 
	-0.098956044994049391 0.9963049022615964 20.97265467131415 
	-0.049631853193334255 1.0000000000000078 20.976176963403031 
	0.049631853193337239 1.0000000000000073 20.976176963403031 
	0.098956044994047698 0.9963049022615984 20.97265467131415 
	0.22095570286527005 0.97810233697938387 20.955290563022771 
	0.29127711896765562 0.95926570248604559 20.937316363766449 
	0.46852917473052269 0.89140707219894288 20.872420424720172 
	0.57121192387901731 0.82947514760480845 20.813092571561082 
	0.75065067571818056 0.67141768265745061 20.660651248224099 
	0.82108736273685246 0.58095332694121604 20.572959032611461 
	0.95614348807205929 0.33840301725284572 20.336101682356407 
	0.99679762928827331 0.17732978660553292 20.177169920816116 
	0.99993933667128265 0.012720499761571774 20.01271746632078 
	1.0000000000000038 0.0063594199666708326 20.006359419966667 
	1.0000000000000038 2.4492935982947061e-15 20 
	3.0720706865956648e-05 
	cone 0 0 20 0 0 1 1 0 0 1 I I 0 1 1 forward I I I I 
	torus 0 0 0 1 0 -1.8369701987210294e-16 20 1 -1.8369701987210294e-16 0 -1 forward_v I I I I 
	nullbs 
	nullbs 
	-1 
	-1 
	F -3.9065537752770738 F -0 
	0 
	2 -3.9065537752770738 -0 
	0 
	
	-1 
	none F } I I #
edge $238 -1 -1 $-1 $188 3.1415926535897931 $187 6.2831853071795862 $178 $189 forward @7 unknown T -1 -1.224646799147353e-16 10 1 1 10 #
integer_attrib-name_attrib-gen-attrib $-1 -1 $239 $-1 $140 2 1 1 1 1 1 1 1 1 1 1 1 1 1 0 1 1 1 @8 CUBIT_ID 11 #
vertex $240 -1 -1 $-1 $185 $241 #
vertex $242 -1 -1 $-1 $185 $243 #
ellipse-curve $-1 -1 -1 $-1 0 0 10 0 0 -1 1 0 0 1 I I #
simple-snl-attrib $-1 -1 $-1 $141 $96 1 1 1 1 1 1 1 1 1 1 1 1 0 1 0 1 1 1 @17 NEW_SIMPLE_ATTRIB 1 @9 ENTITY_ID 0 3 2 -2147483648 -1 #
integer_attrib-name_attrib-gen-attrib $-1 -1 $244 $-1 $142 2 1 1 1 1 1 1 1 1 1 1 1 1 1 0 1 1 1 @8 CUBIT_ID 2 #
point $-1 -1 -1 $-1 1 0 30 #
simple-snl-attrib $-1 -1 $245 $145 $66 1 1 1 1 1 1 1 1 1 1 1 1 0 1 0 1 1 1 @17 NEW_SIMPLE_ATTRIB 1 @9 ENTITY_ID 0 3 5 83040825 1 #
simple-snl-attrib $-1 -1 $246 $146 $101 1 1 1 1 1 1 1 1 1 1 1 1 0 1 0 1 1 1 @17 NEW_SIMPLE_ATTRIB 1 @9 UNIQUE_ID 1 0 1 875897672 #
coedge $-1 -1 -1 $-1 $247 $247 $149 $200 forward $147 $-1 #
integer_attrib-name_attrib-gen-attrib $-1 -1 $248 $-1 $148 2 1 1 1 1 1 1 1 1 1 1 1 1 1 0 1 1 1 @8 CUBIT_ID 3 #
vertex $249 -1 -1 $-1 $148 $250 #
ellipse-curve $-1 -1 -1 $-1 0 0 -40 0 0 -1 1 0 0 1 I I #
coedge $-1 -1 -1 $-1 $149 $149 $247 $251 reversed $105 $-1 #
edge $252 -1 -1 $-1 $253 -3.9335345091685849 $254 0.026980733897035945 $195 $255 forward @7 unknown T -1.0000307207068575 -3.0720706853801576e-05 -20.976207684109884 1.0000307207068502 1.0000307207068539 -19.999969279293147 #
simple-snl-attrib $-1 -1 $256 $150 $108 1 1 1 1 1 1 1 1 1 1 1 1 0 1 0 1 1 1 @17 NEW_SIMPLE_ATTRIB 1 @9 UNIQUE_ID 1 0 1 83040825 #
integer_attrib-name_attrib-gen-attrib $-1 -1 $257 $-1 $151 2 1 1 1 1 1 1 1 1 1 1 1 1 1 0 1 1 1 @8 CUBIT_ID 4 #
point $-1 -1 -1 $-1 -1 -1.224646799147353e-16 -10 #
simple-snl-attrib $-1 -1 $-1 $153 $33 1 1 1 1 1 1 1 1 1 1 1 1 0 1 0 1 1 1 @17 NEW_SIMPLE_ATTRIB 3 @13 MESH_INTERVAL @4 LIMP @4 LIMP 2 1 0 5 1 0 0 1 1 #
simple-snl-attrib $-1 -1 $258 $155 $74 1 1 1 1 1 1 1 1 1 1 1 1 0 1 0 1 1 1 @17 NEW_SIMPLE_ATTRIB 1 @9 ENTITY_ID 0 3 5 83040825 1 #
integer_attrib-name_attrib-gen-attrib $-1 -1 $259 $-1 $157 2 1 1 1 1 1 1 1 1 1 1 1 1 1 0 1 1 1 @8 CUBIT_ID 4 #
vertex $260 -1 -1 $-1 $157 $261 #
ellipse-curve $-1 -1 -1 $-1 0 0 -10 -0 0 1 1 0 0 1 I I #
integer_attrib-name_attrib-gen-attrib $-1 -1 $262 $-1 $159 2 1 1 1 1 1 1 1 1 1 1 1 1 1 0 1 1 1 @8 CUBIT_ID 12 #
ellipse-curve $-1 -1 -1 $-1 0 0 10 -0 0 1 1 0 0 1 I I #
simple-snl-attrib $-1 -1 $263 $160 $119 1 1 1 1 1 1 1 1 1 1 1 1 0 1 0 1 1 1 @17 NEW_SIMPLE_ATTRIB 2 @14 SOURCE_FEATURE @7 IMPRINT 0 0 #
integer_attrib-name_attrib-gen-attrib $-1 -1 $264 $-1 $161 2 1 1 1 1 1 1 1 1 1 1 1 1 1 0 1 1 1 @8 CUBIT_ID 6 #
point $-1 -1 -1 $-1 -1 -1.224646799147353e-16 10 #
integer_attrib-name_attrib-gen-attrib $-1 -1 $265 $-1 $162 2 1 1 1 1 1 1 1 1 1 1 1 1 1 0 1 1 1 @8 CUBIT_ID 1 #
point $-1 -1 -1 $-1 1 0 10 #
simple-snl-attrib $-1 -1 $-1 $164 $35 1 1 1 1 1 1 1 1 1 1 1 1 0 1 0 1 1 1 @17 NEW_SIMPLE_ATTRIB 3 @13 MESH_INTERVAL @4 LIMP @4 LIMP 2 1 0 5 1 0 0 1 1 #
simple-snl-attrib $-1 -1 $266 $166 $81 1 1 1 1 1 1 1 1 1 1 1 1 0 1 0 1 1 1 @17 NEW_SIMPLE_ATTRIB 1 @9 ENTITY_ID 0 3 12 1519008226 1 #
coedge $-1 -1 -1 $-1 $167 $167 $220 $267 reversed $124 $-1 #
edge $268 -1 -1 $-1 $269 -3.9335290182156135 $270 0.026980809944126275 $168 $271 forward @7 unknown T -1.0000307268445634 -3.0726844564586076e-05 19.999969273155433 1.0000307268445707 1.0000307268445747 20.976207690247598 #
coedge $-1 -1 -1 $-1 $168 $168 $218 $267 forward $126 $-1 #
integer_attrib-name_attrib-gen-attrib $-1 -1 $272 $-1 $170 2 1 1 1 1 1 1 1 1 1 1 1 1 1 0 1 1 1 @8 CUBIT_ID 8 #
intcurve-curve $-1 -1 -1 $-1 forward { surfintcur full nubs 3 open 14 
	-4.0759281544672543 3 -4.0470736283333313 2 -3.5855925378090996 2 -3.1104590997892427 2 -2.6948675369276138 2 
	-2.3029971391305404 2 -2.1206283083389841 2 -1.9918756991737712 2 -1.8563676294623297 2 -1.6368668547858765 2 
	-1.2515132792810926 2 -0.75986696025104317 2 -0 2 0.026946877628593276 3 
	-1.0000000000000038 0 -20 
	-1.0000000000000038 0.0063514399671098596 -19.993648560032891 
	-0.99993948882292727 0.012701509476894631 -19.987295464690632 
	-0.99788424159961542 0.12057263193001831 -19.879321451500758 
	-0.9804801904519046 0.22215664193628748 -19.776846328293132 
	-0.91328715725957887 0.42100320831565563 -19.574738400388888 
	-0.86202996385956632 0.51955636867016974 -19.473737723674137 
	-0.73146691962107646 0.68915053437144591 -19.298721375908134 
	-0.65551812235966234 0.76327130906507767 -19.22169107156947 
	-0.47767046354426074 0.8847346554257286 -19.094878930447404 
	-0.37747766331577765 0.9333156043452997 -19.043855481634068 
	-0.21290151989110473 0.97857618882020136 -18.996241236279268 
	-0.15871416970515875 0.98890776309921657 -18.985355577135824 
	-0.063796871298168967 0.99874393456774679 -18.974990408870912 
	-0.024200439272916152 1.0004957456012225 -18.973143403180057 
	0.057306564774371814 0.99923131751213112 -18.974476218504943 
	0.098796492893034743 0.99596689402705796 -18.977917728883369 
	0.20609427718086354 0.98082315582527291 -18.993871934758456 
	0.26983253987069195 0.96503232290546936 -19.010502373459431 
	0.43631559295737932 0.9067833344376055 -19.071711704869077 
	0.52980260467106011 0.85407660474358282 -19.126971209227513 
	0.71144443673389191 0.71438668339249511 -19.272550249617215 
	0.79181543266238186 0.62149075859844816 -19.368802194839816 
	0.94505489669386944 0.3720971205608492 -19.624991982165135 
	0.99640807904262829 0.19805008093890364 -19.801770102156208 
	0.99993948882293604 0.012701509476443121 -19.987295464691595 
	0.99999999999999634 0.006351439967660787 -19.993648560032341 
	0.99999999999999634 0 -20 
	2.3659075888013167e-05 
	cone 0 0 10 0 0 1 1 0 0 1 I I 0 1 1 forward I I I I 
	torus 0 0 0 1 0 -1.8369701987210294e-16 20 1 -1.8369701987210294e-16 0 -1 forward_v I I I I 
	nullbs 
	nullbs 
	-1 
	-1 
	F -4.0470736283333313 F -0 
	0 
	2 -4.0470736283333313 -0 
	0 
	
	-1 
	none F } I I #
simple-snl-attrib $-1 -1 $273 $171 $129 1 1 1 1 1 1 1 1 1 1 1 1 0 1 0 1 1 1 @17 NEW_SIMPLE_ATTRIB 1 @9 UNIQUE_ID 1 0 1 512787678 #
integer_attrib-name_attrib-gen-attrib $-1 -1 $274 $-1 $172 2 1 1 1 1 1 1 1 1 1 1 1 1 1 0 1 1 1 @8 CUBIT_ID 7 #
point $-1 -1 -1 $-1 0.99999999999999634 0 -20 #
integer_attrib-name_attrib-gen-attrib $-1 -1 $275 $-1 $173 2 1 1 1 1 1 1 1 1 1 1 1 1 1 0 1 1 1 @8 CUBIT_ID 8 #
point $-1 -1 -1 $-1 -1.0000000000000038 0 -20 #
simple-snl-attrib $-1 -1 $-1 $175 $38 1 1 1 1 1 1 1 1 1 1 1 1 0 1 0 1 1 1 @17 NEW_SIMPLE_ATTRIB 3 @13 MESH_INTERVAL @4 LIMP @4 LIMP 2 1 0 5 1 0 0 1 1 #
simple-snl-attrib $-1 -1 $276 $176 $59 1 1 1 1 1 1 1 1 1 1 1 1 0 1 0 1 1 1 @17 NEW_SIMPLE_ATTRIB 1 @13 MERGE_PARTNER 0 4 343224888 1 14 1 #
simple-snl-attrib $-1 -1 $-1 $177 $89 1 1 1 1 1 1 1 1 1 1 1 1 0 1 0 1 1 1 @17 NEW_SIMPLE_ATTRIB 3 @13 MESH_INTERVAL @4 LIMP @4 LIMP 2 1 0 5 1 0 0 1 1 #
integer_attrib-name_attrib-gen-attrib $-1 -1 $277 $-1 $180 2 1 1 1 1 1 1 1 1 1 1 1 1 1 0 1 1 1 @8 CUBIT_ID 10 #
intcurve-curve $-1 -1 -1 $-1 forward { surfintcur full nubs 3 open 14 
	-4.0759281545128481 3 -4.0470736283785298 2 -3.5855925378483948 2 -3.1104590998224113 2 -2.6948675369555408 2 
	-2.3029971391535109 2 -2.1206283083595956 2 -1.9918756991927955 2 -1.8563676294797602 2 -1.6368668548007568 2 
	-1.2515132792914083 2 -0.75986696025550382 2 -0 2 0.026946877628656163 3 
	1.0000000000000038 2.4492935982947061e-15 20 
	1.0000000000000038 0.0063514399671226289 19.993648560032881 
	0.9999394888229276 0.012701509476886062 19.98729546469065 
	0.99788424159961464 0.12057263193006884 19.879321451500669 
	0.98048019045189638 0.22215664193633122 19.776846328293093 
	0.9132871572595509 0.4210032083157228 19.574738400388824 
	0.86202996385952158 0.51955636867024912 19.473737723674056 
	0.73146691962100585 0.68915053437152007 19.298721375908059 
	0.65551812235959184 0.76327130906513729 19.22169107156941 
	0.47767046354419468 0.88473465542576413 19.094878930447369 
	0.37747766331571631 0.93331560434532457 19.043855481634047 
	0.21290151989103917 0.97857618882021735 18.996241236279253 
	0.1587141697051091 0.98890776309922013 18.985355577135817 
	0.063796871298171326 0.9987439345677418 18.974990408870912 
	0.024200439272902378 1.0004957456012238 18.973143403180053 
	-0.05730656477439456 0.99923131751213001 18.974476218504947 
	-0.098796492893050231 0.99596689402705896 18.977917728883366 
	-0.20609427718092455 0.98082315582526347 18.993871934758463 
	-0.26983253987077532 0.96503232290544627 19.01050237345946 
	-0.43631559295744887 0.90678333443757342 19.071711704869116 
	-0.52980260467112716 0.85407660474354175 19.126971209227559 
	-0.71144443673395386 0.71438668339243538 19.272550249617282 
	-0.79181543266244236 0.62149075859837921 19.368802194839891 
	-0.94505489669336873 0.37209712056163091 19.624991982164339 
	-0.99640807904260742 0.19805008093992033 19.801770102155114 
	-0.99993948882293637 0.012701509476439637 19.987295464691613 
	-0.99999999999999634 0.0063514399676780579 19.993648560032323 
	-0.99999999999999634 2.4492935982947061e-15 20 
	2.3659075910296432e-05 
	cone 0 0 20 0 0 1 1 0 0 1 I I 0 1 1 forward I I I I 
	torus 0 0 0 1 0 -1.8369701987210294e-16 20 1 -1.8369701987210294e-16 0 -1 forward_v I I I I 
	nullbs 
	nullbs 
	-1 
	-1 
	F -4.0470736283785298 F -0 
	0 
	2 -4.0470736283785298 -0 
	0 
	
	-1 
	none F } I I #
simple-snl-attrib $-1 -1 $278 $181 $138 1 1 1 1 1 1 1 1 1 1 1 1 0 1 0 1 1 1 @17 NEW_SIMPLE_ATTRIB 1 @9 UNIQUE_ID 1 0 1 1519008226 #
integer_attrib-name_attrib-gen-attrib $-1 -1 $279 $-1 $182 2 1 1 1 1 1 1 1 1 1 1 1 1 1 0 1 1 1 @8 CUBIT_ID 9 #
point $-1 -1 -1 $-1 -0.99999999999999634 2.4492935982947061e-15 20 #
integer_attrib-name_attrib-gen-attrib $-1 -1 $280 $-1 $183 2 1 1 1 1 1 1 1 1 1 1 1 1 1 0 1 1 1 @8 CUBIT_ID 10 #
point $-1 -1 -1 $-1 1.0000000000000038 2.4492935982947061e-15 20 #
integer_attrib-name_attrib-gen-attrib $-1 -1 $281 $-1 $185 2 1 1 1 1 1 1 1 1 1 1 1 1 1 0 1 1 1 @8 CUBIT_ID 12 #
simple-snl-attrib $-1 -1 $282 $186 $140 1 1 1 1 1 1 1 1 1 1 1 1 0 1 0 1 1 1 @17 NEW_SIMPLE_ATTRIB 2 @14 SOURCE_FEATURE @7 IMPRINT 0 0 #
integer_attrib-name_attrib-gen-attrib $-1 -1 $283 $-1 $187 2 1 1 1 1 1 1 1 1 1 1 1 1 1 0 1 1 1 @8 CUBIT_ID 1 #
point $-1 -1 -1 $-1 1 0 10 #
integer_attrib-name_attrib-gen-attrib $-1 -1 $284 $-1 $188 2 1 1 1 1 1 1 1 1 1 1 1 1 1 0 1 1 1 @8 CUBIT_ID 6 #
point $-1 -1 -1 $-1 -1 -1.224646799147353e-16 10 #
simple-snl-attrib $-1 -1 $-1 $191 $142 1 1 1 1 1 1 1 1 1 1 1 1 0 1 0 1 1 1 @17 NEW_SIMPLE_ATTRIB 1 @9 ENTITY_ID 0 3 2 -2147483648 -1 #
simple-snl-attrib $-1 -1 $285 $193 $66 1 1 1 1 1 1 1 1 1 1 1 1 0 1 0 1 1 1 @17 NEW_SIMPLE_ATTRIB 1 @13 MERGE_PARTNER 0 4 679782684 -1 16 0 #
simple-snl-attrib $-1 -1 $286 $194 $101 1 1 1 1 1 1 1 1 1 1 1 1 0 1 0 1 1 1 @17 NEW_SIMPLE_ATTRIB 1 @9 ENTITY_ID 0 3 10 512787678 1 #
coedge $-1 -1 -1 $-1 $195 $195 $199 $251 forward $147 $-1 #
simple-snl-attrib $-1 -1 $-1 $196 $148 1 1 1 1 1 1 1 1 1 1 1 1 0 1 0 1 1 1 @17 NEW_SIMPLE_ATTRIB 1 @9 ENTITY_ID 0 3 3 -2147483648 -1 #
integer_attrib-name_attrib-gen-attrib $-1 -1 $287 $-1 $197 2 1 1 1 1 1 1 1 1 1 1 1 1 1 0 1 1 1 @8 CUBIT_ID 3 #
point $-1 -1 -1 $-1 1 0 -40 #
edge $288 -1 -1 $-1 $254 -4.0759281544672543 $253 0.026946877628593276 $247 $289 forward @7 unknown T -1.0000236590758917 -2.3659075888013167e-05 -20.00002365907589 1.0000236590758844 1.0005194046771104 -18.973119744104167 #
integer_attrib-name_attrib-gen-attrib $-1 -1 $290 $-1 $200 2 1 1 1 1 1 1 1 1 1 1 1 1 1 0 1 1 1 @8 CUBIT_ID 7 #
vertex $291 -1 -1 $-1 $200 $292 #
vertex $293 -1 -1 $-1 $200 $294 #
intcurve-curve $-1 -1 -1 $-1 forward { surfintcur full nubs 3 open 13 
	-3.9335345091685849 3 -3.9065537752727364 2 -3.2354254368383368 2 -2.8072806422248688 2 -2.3786272727133659 2 
	-2.1227629222105735 2 -1.9532768876368778 2 -1.7837908530631879 2 -1.5279265025604365 2 -1.0992731330483783 2 
	-0.67112833843365372 2 -0 2 0.026980733897035945 3 
	0.99999999999999634 0 -20 
	0.99999999999999634 0.0063594199662090492 -20.006359419966209 
	0.99993933667127222 0.012720499762137924 -20.012717466320826 
	0.9967976292883769 0.17732978659977117 -20.177169920813206 
	0.95614348807238181 0.33840301725227206 -20.336101682355832 
	0.82108736273684413 0.58095332694122281 -20.572959032611461 
	0.75065067571817212 0.67141768265746204 -20.660651248224099 
	0.57121192387877118 0.82947514760502461 -20.813092571561285 
	0.46852917473023054 0.8914070721990569 -20.872420424720275 
	0.29127711896763925 0.9592657024860507 -20.937316363766449 
	0.22095570286525723 0.97810233697938342 -20.955290563022775 
	0.098956044994008951 0.99630490226160062 -20.972654671314153 
	0.049631853193313917 1.0000000000000002 -20.976176963403031 
	-0.049631853193319996 0.99999999999999978 -20.976176963403031 
	-0.09895604499401349 0.99630490226160084 -20.972654671314157 
	-0.22095570286526486 0.97810233697938198 -20.955290563022775 
	-0.29127711896764513 0.95926570248604959 -20.937316363766453 
	-0.46852917473042388 0.89140707219898074 -20.872420424720207 
	-0.57121192387893582 0.8294751476048825 -20.813092571561153 
	-0.75065067571818433 0.67141768265744783 -20.660651248224095 
	-0.82108736273685512 0.58095332694120838 -20.572959032611458 
	-0.9561434880720634 0.3384030172528345 -20.336101682356404 
	-0.9967976292882742 0.17732978660543658 -20.177169920816077 
	-0.99993933667128254 0.01272049976158688 -20.012717466320787 
	-1.0000000000000038 0.0063594199666612942 -20.00635941996666 
	-1.0000000000000038 0 -20 
	3.0720706853801576e-05 
	cone 0 0 10 0 0 1 1 0 0 1 I I 0 1 1 forward I I I I 
	torus 0 0 0 1 0 -1.8369701987210294e-16 20 1 -1.8369701987210294e-16 0 -1 forward_v I I I I 
	nullbs 
	nullbs 
	-1 
	-1 
	F -3.9065537752727364 F -0 
	0 
	2 -3.9065537752727364 -0 
	0 
	
	-1 
	none F } I I #
simple-snl-attrib $-1 -1 $295 $201 $108 1 1 1 1 1 1 1 1 1 1 1 1 0 1 0 1 1 1 @17 NEW_SIMPLE_ATTRIB 1 @9 ENTITY_ID 3 0.49999999999999989 -0.8660254037844386 -10 3 4 1165454505 0 #
simple-snl-attrib $-1 -1 $296 $202 $151 1 1 1 1 1 1 1 1 1 1 1 1 0 1 0 1 1 1 @17 NEW_SIMPLE_ATTRIB 1 @9 UNIQUE_ID 1 0 1 1165454505 #
simple-snl-attrib $-1 -1 $297 $205 $74 1 1 1 1 1 1 1 1 1 1 1 1 0 1 0 1 1 1 @17 NEW_SIMPLE_ATTRIB 1 @13 MERGE_PARTNER 0 4 679782684 1 30 1 #
simple-snl-attrib $-1 -1 $298 $206 $157 1 1 1 1 1 1 1 1 1 1 1 1 0 1 0 1 1 1 @17 NEW_SIMPLE_ATTRIB 1 @9 UNIQUE_ID 1 0 1 83040825 #
integer_attrib-name_attrib-gen-attrib $-1 -1 $299 $-1 $207 2 1 1 1 1 1 1 1 1 1 1 1 1 1 0 1 1 1 @8 CUBIT_ID 4 #
point $-1 -1 -1 $-1 -1 -1.224646799147353e-16 -10 #
simple-snl-attrib $-1 -1 $300 $209 $159 1 1 1 1 1 1 1 1 1 1 1 1 0 1 0 1 1 1 @17 NEW_SIMPLE_ATTRIB 2 @14 SOURCE_FEATURE @7 IMPRINT 0 0 #
simple-snl-attrib $-1 -1 $301 $211 $119 1 1 1 1 1 1 1 1 1 1 1 1 0 1 0 1 1 1 @17 NEW_SIMPLE_ATTRIB 1 @9 UNIQUE_ID 1 0 1 412913886 #
simple-snl-attrib $-1 -1 $302 $212 $161 1 1 1 1 1 1 1 1 1 1 1 1 0 1 0 1 1 1 @17 NEW_SIMPLE_ATTRIB 1 @9 UNIQUE_ID 1 0 1 258156022 #
simple-snl-attrib $-1 -1 $303 $214 $162 1 1 1 1 1 1 1 1 1 1 1 1 0 1 0 1 1 1 @17 NEW_SIMPLE_ATTRIB 1 @9 UNIQUE_ID 1 0 1 975226171 #
simple-snl-attrib $-1 -1 $304 $217 $81 1 1 1 1 1 1 1 1 1 1 1 1 0 1 0 1 1 1 @17 NEW_SIMPLE_ATTRIB 1 @13 MERGE_PARTNER 0 4 699136089 1 42 1 #
edge $305 -1 -1 $-1 $270 -4.0759277736023263 $269 0.026946953221765171 $220 $306 forward @7 unknown T -1.0000236590671632 -2.3659067164391448e-05 18.973119646649323 1.0000236590671707 1.0005194971336016 20.000023659067168 #
integer_attrib-name_attrib-gen-attrib $-1 -1 $307 $-1 $219 2 1 1 1 1 1 1 1 1 1 1 1 1 1 0 1 1 1 @8 CUBIT_ID 9 #
vertex $308 -1 -1 $-1 $219 $309 #
vertex $310 -1 -1 $-1 $219 $311 #
intcurve-curve $-1 -1 -1 $-1 forward { surfintcur full nubs 3 open 13 
	-3.9335290182156135 3 -3.9065482082725622 2 -3.2353949681262764 2 -2.8072574822686542 2 -2.3786097753222766 2 
	-2.1227545865859532 2 -1.9532741041343411 2 -1.7837936216827051 2 -1.5279384329462715 2 -1.0992907260000402 2 
	-0.67115324014288724 2 -0 2 0.026980809944126275 3 
	-0.99999999999999634 2.4492935982947061e-15 20 
	-0.99999999999999634 0.0063594378906848305 20.006359437890683 
	-0.9999393363293041 0.012720535620820443 20.012717502162417 
	-0.99679750767579312 0.17733571217663105 20.177175840319972 
	-0.95614045153076066 0.3384151043216953 20.336113600424387 
	-0.82107697702845706 0.58096774654679184 20.572973040593048 
	-0.75063965392997001 0.6714297363865408 20.660662908146296 
	-0.5712004933100483 0.82948286780526881 20.813099982910309 
	-0.468517828345339 0.89141289895030917 20.872426004818756 
	-0.29126801015214099 0.95926830441214395 20.937318847471506 
	-0.22094873483938682 0.97810372095959641 20.955291883575185 
	-0.098952965248619809 0.99630513365490814 20.97265489183566 
	-0.049630299072125982 1.0000000000000078 20.976176963403031 
	0.049630299072140754 1.0000000000000073 20.976176963403031 
	0.098952965248641389 0.99630513365490669 20.972654891835653 
	0.22094873483939687 0.97810372095959552 20.955291883575182 
	0.29126801015215242 0.95926830441213673 20.937318847471506 
	0.46851782834527134 0.89141289895032894 20.872426004818784 
	0.57120049330999234 0.82948286780532055 20.813099982910362 
	0.75063965392998 0.67142973638652981 20.660662908146293 
	0.82107697702846716 0.58096774654677819 20.572973040593048 
	0.95614045153044369 0.33841510432225713 20.336113600424955 
	0.99679750767569075 0.1773357121822812 20.177175840322814 
	0.99993933632931431 0.012720535620270996 20.012717502162381 
	1.0000000000000038 0.0063594378911348308 20.006359437891131 
	1.0000000000000038 2.4492935982947061e-15 20 
	3.072684456703537e-05 
	cone 0 0 20 0 0 1 1 0 0 1 I I 0 1 1 forward I I I I 
	torus 0 0 0 1 0 -1.8369701987210294e-16 20 1 -1.8369701987210294e-16 0 -1 forward_v I I I I 
	nullbs 
	nullbs 
	-1 
	-1 
	F -3.9065482082725622 F -0 
	0 
	2 -3.9065482082725622 -0 
	0 
	
	-1 
	none F } I I #
simple-snl-attrib $-1 -1 $312 $221 $170 1 1 1 1 1 1 1 1 1 1 1 1 0 1 0 1 1 1 @17 NEW_SIMPLE_ATTRIB 1 @9 UNIQUE_ID 1 0 1 463383309 #
simple-snl-attrib $-1 -1 $313 $223 $129 1 1 1 1 1 1 1 1 1 1 1 1 0 1 0 1 1 1 @17 NEW_SIMPLE_ATTRIB 1 @9 ENTITY_ID 0 3 7 1875228172 0 #
simple-snl-attrib $-1 -1 $314 $224 $172 1 1 1 1 1 1 1 1 1 1 1 1 0 1 0 1 1 1 @17 NEW_SIMPLE_ATTRIB 1 @9 UNIQUE_ID 1 0 1 1875228172 #
simple-snl-attrib $-1 -1 $315 $226 $173 1 1 1 1 1 1 1 1 1 1 1 1 0 1 0 1 1 1 @17 NEW_SIMPLE_ATTRIB 1 @9 UNIQUE_ID 1 0 1 665582219 #
simple-snl-attrib $-1 -1 $-1 $229 $59 1 1 1 1 1 1 1 1 1 1 1 1 0 1 0 1 1 1 @17 NEW_SIMPLE_ATTRIB 3 @13 MESH_INTERVAL @4 LIMP @4 LIMP 2 1 0 5 1 0 0 1 1 #
simple-snl-attrib $-1 -1 $316 $231 $180 1 1 1 1 1 1 1 1 1 1 1 1 0 1 0 1 1 1 @17 NEW_SIMPLE_ATTRIB 1 @9 UNIQUE_ID 1 0 1 304775187 #
simple-snl-attrib $-1 -1 $317 $233 $138 1 1 1 1 1 1 1 1 1 1 1 1 0 1 0 1 1 1 @17 NEW_SIMPLE_ATTRIB 1 @9 ENTITY_ID 0 3 9 131303302 0 #
simple-snl-attrib $-1 -1 $318 $234 $182 1 1 1 1 1 1 1 1 1 1 1 1 0 1 0 1 1 1 @17 NEW_SIMPLE_ATTRIB 1 @9 UNIQUE_ID 1 0 1 131303302 #
simple-snl-attrib $-1 -1 $319 $236 $183 1 1 1 1 1 1 1 1 1 1 1 1 0 1 0 1 1 1 @17 NEW_SIMPLE_ATTRIB 1 @9 UNIQUE_ID 1 0 1 556395531 #
simple-snl-attrib $-1 -1 $320 $238 $185 1 1 1 1 1 1 1 1 1 1 1 1 0 1 0 1 1 1 @17 NEW_SIMPLE_ATTRIB 2 @14 SOURCE_FEATURE @7 IMPRINT 0 0 #
simple-snl-attrib $-1 -1 $321 $239 $140 1 1 1 1 1 1 1 1 1 1 1 1 0 1 0 1 1 1 @17 NEW_SIMPLE_ATTRIB 1 @9 UNIQUE_ID 1 0 1 412913886 #
simple-snl-attrib $-1 -1 $322 $240 $187 1 1 1 1 1 1 1 1 1 1 1 1 0 1 0 1 1 1 @17 NEW_SIMPLE_ATTRIB 1 @9 UNIQUE_ID 1 0 1 975226171 #
simple-snl-attrib $-1 -1 $323 $242 $188 1 1 1 1 1 1 1 1 1 1 1 1 0 1 0 1 1 1 @17 NEW_SIMPLE_ATTRIB 1 @9 UNIQUE_ID 1 0 1 258156022 #
simple-snl-attrib $-1 -1 $-1 $245 $66 1 1 1 1 1 1 1 1 1 1 1 1 0 1 0 1 1 1 @17 NEW_SIMPLE_ATTRIB 3 @13 MESH_INTERVAL @4 LIMP @4 LIMP 2 1 0 5 1 0 0 1 1 #
simple-snl-attrib $-1 -1 $324 $246 $101 1 1 1 1 1 1 1 1 1 1 1 1 0 1 0 1 1 1 @17 NEW_SIMPLE_ATTRIB 1 @13 MERGE_PARTNER 0 4 875897672 -1 16 0 #
simple-snl-attrib $-1 -1 $-1 $249 $197 1 1 1 1 1 1 1 1 1 1 1 1 0 1 0 1 1 1 @17 NEW_SIMPLE_ATTRIB 1 @9 ENTITY_ID 0 3 3 -2147483648 -1 #
integer_attrib-name_attrib-gen-attrib $-1 -1 $325 $-1 $251 2 1 1 1 1 1 1 1 1 1 1 1 1 1 0 1 1 1 @8 CUBIT_ID 8 #
intcurve-curve $-1 -1 -1 $-1 forward { surfintcur full nubs 3 open 14 
	-4.0759281544672543 3 -4.0470736283333313 2 -3.5855925378090996 2 -3.1104590997892427 2 -2.6948675369276138 2 
	-2.3029971391305404 2 -2.1206283083389841 2 -1.9918756991737712 2 -1.8563676294623297 2 -1.6368668547858765 2 
	-1.2515132792810926 2 -0.75986696025104317 2 -0 2 0.026946877628593276 3 
	-1.0000000000000038 0 -20 
	-1.0000000000000038 0.0063514399671098596 -19.993648560032891 
	-0.99993948882292727 0.012701509476894631 -19.987295464690632 
	-0.99788424159961542 0.12057263193001831 -19.879321451500758 
	-0.9804801904519046 0.22215664193628748 -19.776846328293132 
	-0.91328715725957887 0.42100320831565563 -19.574738400388888 
	-0.86202996385956632 0.51955636867016974 -19.473737723674137 
	-0.73146691962107646 0.68915053437144591 -19.298721375908134 
	-0.65551812235966234 0.76327130906507767 -19.22169107156947 
	-0.47767046354426074 0.8847346554257286 -19.094878930447404 
	-0.37747766331577765 0.9333156043452997 -19.043855481634068 
	-0.21290151989110473 0.97857618882020136 -18.996241236279268 
	-0.15871416970515875 0.98890776309921657 -18.985355577135824 
	-0.063796871298168967 0.99874393456774679 -18.974990408870912 
	-0.024200439272916152 1.0004957456012225 -18.973143403180057 
	0.057306564774371814 0.99923131751213112 -18.974476218504943 
	0.098796492893034743 0.99596689402705796 -18.977917728883369 
	0.20609427718086354 0.98082315582527291 -18.993871934758456 
	0.26983253987069195 0.96503232290546936 -19.010502373459431 
	0.43631559295737932 0.9067833344376055 -19.071711704869077 
	0.52980260467106011 0.85407660474358282 -19.126971209227513 
	0.71144443673389191 0.71438668339249511 -19.272550249617215 
	0.79181543266238186 0.62149075859844816 -19.368802194839816 
	0.94505489669386944 0.3720971205608492 -19.624991982165135 
	0.99640807904262829 0.19805008093890364 -19.801770102156208 
	0.99993948882293604 0.012701509476443121 -19.987295464691595 
	0.99999999999999634 0.006351439967660787 -19.993648560032341 
	0.99999999999999634 0 -20 
	2.3659075888013167e-05 
	cone 0 0 10 0 0 1 1 0 0 1 I I 0 1 1 forward I I I I 
	torus 0 0 0 1 0 -1.8369701987210294e-16 20 1 -1.8369701987210294e-16 0 -1 forward_v I I I I 
	nullbs 
	nullbs 
	-1 
	-1 
	F -4.0470736283333313 F -0 
	0 
	2 -4.0470736283333313 -0 
	0 
	
	-1 
	none F } I I #
simple-snl-attrib $-1 -1 $326 $252 $200 1 1 1 1 1 1 1 1 1 1 1 1 0 1 0 1 1 1 @17 NEW_SIMPLE_ATTRIB 1 @9 UNIQUE_ID 1 0 1 512787678 #
integer_attrib-name_attrib-gen-attrib $-1 -1 $327 $-1 $253 2 1 1 1 1 1 1 1 1 1 1 1 1 1 0 1 1 1 @8 CUBIT_ID 7 #
point $-1 -1 -1 $-1 0.99999999999999634 0 -20 #
integer_attrib-name_attrib-gen-attrib $-1 -1 $328 $-1 $254 2 1 1 1 1 1 1 1 1 1 1 1 1 1 0 1 1 1 @8 CUBIT_ID 8 #
point $-1 -1 -1 $-1 -1.0000000000000038 0 -20 #
simple-snl-attrib $-1 -1 $-1 $256 $108 1 1 1 1 1 1 1 1 1 1 1 1 0 1 0 1 1 1 @17 NEW_SIMPLE_ATTRIB 1 @13 MERGE_PARTNER 0 4 83040825 1 13 0 #
simple-snl-attrib $-1 -1 $329 $257 $151 1 1 1 1 1 1 1 1 1 1 1 1 0 1 0 1 1 1 @17 NEW_SIMPLE_ATTRIB 1 @9 ENTITY_ID 0 3 4 -2147483648 -1 #
simple-snl-attrib $-1 -1 $-1 $258 $74 1 1 1 1 1 1 1 1 1 1 1 1 0 1 0 1 1 1 @17 NEW_SIMPLE_ATTRIB 3 @13 MESH_INTERVAL @4 LIMP @4 LIMP 2 1 0 5 1 0 0 1 1 #
simple-snl-attrib $-1 -1 $330 $259 $157 1 1 1 1 1 1 1 1 1 1 1 1 0 1 0 1 1 1 @17 NEW_SIMPLE_ATTRIB 1 @9 ENTITY_ID 3 0.49999999999999989 -0.8660254037844386 -10 3 4 1165454505 0 #
simple-snl-attrib $-1 -1 $331 $260 $207 1 1 1 1 1 1 1 1 1 1 1 1 0 1 0 1 1 1 @17 NEW_SIMPLE_ATTRIB 1 @9 UNIQUE_ID 1 0 1 1165454505 #
simple-snl-attrib $-1 -1 $332 $262 $159 1 1 1 1 1 1 1 1 1 1 1 1 0 1 0 1 1 1 @17 NEW_SIMPLE_ATTRIB 1 @9 UNIQUE_ID 1 0 1 145754622 #
simple-snl-attrib $-1 -1 $333 $263 $119 1 1 1 1 1 1 1 1 1 1 1 1 0 1 0 1 1 1 @17 NEW_SIMPLE_ATTRIB 1 @9 ENTITY_ID 0 3 11 975226171 0 #
simple-snl-attrib $-1 -1 $334 $264 $161 1 1 1 1 1 1 1 1 1 1 1 1 0 1 0 1 1 1 @17 NEW_SIMPLE_ATTRIB 1 @9 ENTITY_ID 0 3 6 -2147483648 -1 #
simple-snl-attrib $-1 -1 $335 $265 $162 1 1 1 1 1 1 1 1 1 1 1 1 0 1 0 1 1 1 @17 NEW_SIMPLE_ATTRIB 1 @9 ENTITY_ID 0 3 1 -2147483648 -1 #
simple-snl-attrib $-1 -1 $-1 $266 $81 1 1 1 1 1 1 1 1 1 1 1 1 0 1 0 1 1 1 @17 NEW_SIMPLE_ATTRIB 3 @13 MESH_INTERVAL @4 LIMP @4 LIMP 2 1 0 5 1 0 0 1 1 #
integer_attrib-name_attrib-gen-attrib $-1 -1 $336 $-1 $267 2 1 1 1 1 1 1 1 1 1 1 1 1 1 0 1 1 1 @8 CUBIT_ID 10 #
intcurve-curve $-1 -1 -1 $-1 forward { surfintcur full nubs 3 open 14 
	-4.0759277736023263 3 -4.0470731716148718 2 -3.5855702647528696 2 -3.1104118694801248 2 -2.6948349263521498 2 
	-2.3029758855693867 2 -2.1206181804869906 2 -1.9918703929055532 2 -1.8563650921251584 2 -1.6368642560454261 2 
	-1.2515118135034951 2 -0.75986688532220814 2 -0 2 0.026946953221765171 3 
	1.0000000000000038 2.4492935982947061e-15 20 
	1.0000000000000038 0.0063514577845887703 19.993648542215414 
	0.99993948848342684 0.012701545104566236 19.987295429045982 
	0.99788414337367703 0.12057750255284011 19.879316575960214 
	0.98047852636086585 0.22216636417812208 19.776836518963275 
	0.91327904173248919 0.42102228456388457 19.574718936741291 
	0.86201658190368202 0.51958012713579715 19.473713339806181 
	0.7314450030122982 0.68917342451369956 19.29869763653079 
	0.65549592486670905 0.76328995622259321 19.221671655374408 
	0.47764917259273421 0.88474590748287896 19.094867133739797 
	0.37745747604773072 0.93332341872392521 19.043847269817572 
	0.21288612205808216 0.97857937021438912 18.996237885288554 
	0.15870177975031613 0.98890956195851587 18.985353681850842 
	0.063789153593796763 0.99874437074247768 18.974989949013576 
	0.02419417344718959 1.0004958380664346 18.973143305716491 
	-0.057310481575796844 0.99923105710419635 18.974476492994363 
	-0.098799542952817371 0.99596655589924532 18.97791808521163 
	-0.20609644617435674 0.98082270009776473 18.993872414706583 
	-0.26983466415863572 0.96503172755695366 19.010502999948212 
	-0.43631719480380621 0.90678251433348867 19.071712565101897 
	-0.52980380100265845 0.85407582344752964 19.126972025774798 
	-0.71144489217334173 0.71438615614150403 19.272550796145357 
	-0.79181560210834734 0.62149048252855077 19.368802478426613 
	-0.94505488701599427 0.3720971367758904 19.624991965517786 
	-0.99640806879934551 0.19805011638057199 19.801770066201204 
	-0.99993948848343583 0.012701545104110758 19.987295429046949 
	-0.99999999999999634 0.0063514577851447231 19.993648542214856 
	-0.99999999999999634 2.4492935982947061e-15 20 
	2.3659067166840742e-05 
	cone 0 0 20 0 0 1 1 0 0 1 I I 0 1 1 forward I I I I 
	torus 0 0 0 1 0 -1.8369701987210294e-16 20 1 -1.8369701987210294e-16 0 -1 forward_v I I I I 
	nullbs 
	nullbs 
	-1 
	-1 
	F -4.0470731716148718 F -0 
	0 
	2 -4.0470731716148718 -0 
	0 
	
	-1 
	none F } I I #
simple-snl-attrib $-1 -1 $337 $268 $219 1 1 1 1 1 1 1 1 1 1 1 1 0 1 0 1 1 1 @17 NEW_SIMPLE_ATTRIB 1 @9 UNIQUE_ID 1 0 1 1519008226 #
integer_attrib-name_attrib-gen-attrib $-1 -1 $338 $-1 $269 2 1 1 1 1 1 1 1 1 1 1 1 1 1 0 1 1 1 @8 CUBIT_ID 9 #
point $-1 -1 -1 $-1 -0.99999999999999634 0 20 #
integer_attrib-name_attrib-gen-attrib $-1 -1 $339 $-1 $270 2 1 1 1 1 1 1 1 1 1 1 1 1 1 0 1 1 1 @8 CUBIT_ID 10 #
point $-1 -1 -1 $-1 1.0000000000000038 0 20 #
simple-snl-attrib $-1 -1 $340 $272 $170 1 1 1 1 1 1 1 1 1 1 1 1 0 1 0 1 1 1 @17 NEW_SIMPLE_ATTRIB 1 @9 ENTITY_ID 0 3 8 665582219 0 #
simple-snl-attrib $-1 -1 $-1 $273 $129 1 1 1 1 1 1 1 1 1 1 1 1 0 1 0 1 1 1 @17 NEW_SIMPLE_ATTRIB 1 @13 MERGE_PARTNER 0 4 512787678 1 25 1 #
simple-snl-attrib $-1 -1 $341 $274 $172 1 1 1 1 1 1 1 1 1 1 1 1 0 1 0 1 1 1 @17 NEW_SIMPLE_ATTRIB 1 @9 ENTITY_ID 0 3 7 -2147483648 -1 #
simple-snl-attrib $-1 -1 $342 $275 $173 1 1 1 1 1 1 1 1 1 1 1 1 0 1 0 1 1 1 @17 NEW_SIMPLE_ATTRIB 1 @9 ENTITY_ID 0 3 8 -2147483648 -1 #
simple-snl-attrib $-1 -1 $343 $277 $180 1 1 1 1 1 1 1 1 1 1 1 1 0 1 0 1 1 1 @17 NEW_SIMPLE_ATTRIB 1 @9 ENTITY_ID 0 3 10 556395531 0 #
simple-snl-attrib $-1 -1 $-1 $278 $138 1 1 1 1 1 1 1 1 1 1 1 1 0 1 0 1 1 1 @17 NEW_SIMPLE_ATTRIB 1 @13 MERGE_PARTNER 0 4 1519008226 1 13 0 #
simple-snl-attrib $-1 -1 $344 $279 $182 1 1 1 1 1 1 1 1 1 1 1 1 0 1 0 1 1 1 @17 NEW_SIMPLE_ATTRIB 1 @9 ENTITY_ID 0 3 9 -2147483648 -1 #
simple-snl-attrib $-1 -1 $345 $280 $183 1 1 1 1 1 1 1 1 1 1 1 1 0 1 0 1 1 1 @17 NEW_SIMPLE_ATTRIB 1 @9 ENTITY_ID 0 3 10 -2147483648 -1 #
simple-snl-attrib $-1 -1 $346 $281 $185 1 1 1 1 1 1 1 1 1 1 1 1 0 1 0 1 1 1 @17 NEW_SIMPLE_ATTRIB 1 @9 UNIQUE_ID 1 0 1 145754622 #
simple-snl-attrib $-1 -1 $347 $282 $140 1 1 1 1 1 1 1 1 1 1 1 1 0 1 0 1 1 1 @17 NEW_SIMPLE_ATTRIB 1 @9 ENTITY_ID 0 3 11 975226171 0 #
simple-snl-attrib $-1 -1 $348 $283 $187 1 1 1 1 1 1 1 1 1 1 1 1 0 1 0 1 1 1 @17 NEW_SIMPLE_ATTRIB 1 @9 ENTITY_ID 0 3 1 -2147483648 -1 #
simple-snl-attrib $-1 -1 $349 $284 $188 1 1 1 1 1 1 1 1 1 1 1 1 0 1 0 1 1 1 @17 NEW_SIMPLE_ATTRIB 1 @9 ENTITY_ID 0 3 6 -2147483648 -1 #
simple-snl-attrib $-1 -1 $-1 $286 $101 1 1 1 1 1 1 1 1 1 1 1 1 0 1 0 1 1 1 @17 NEW_SIMPLE_ATTRIB 3 @13 MESH_INTERVAL @4 LIMP @4 LIMP 2 1 0 5 1 0 0 1 1 #
simple-snl-attrib $-1 -1 $350 $288 $251 1 1 1 1 1 1 1 1 1 1 1 1 0 1 0 1 1 1 @17 NEW_SIMPLE_ATTRIB 1 @9 UNIQUE_ID 1 0 1 463383309 #
simple-snl-attrib $-1 -1 $351 $290 $200 1 1 1 1 1 1 1 1 1 1 1 1 0 1 0 1 1 1 @17 NEW_SIMPLE_ATTRIB 1 @9 ENTITY_ID 0 3 7 1875228172 0 #
simple-snl-attrib $-1 -1 $352 $291 $253 1 1 1 1 1 1 1 1 1 1 1 1 0 1 0 1 1 1 @17 NEW_SIMPLE_ATTRIB 1 @9 UNIQUE_ID 1 0 1 1875228172 #
simple-snl-attrib $-1 -1 $353 $293 $254 1 1 1 1 1 1 1 1 1 1 1 1 0 1 0 1 1 1 @17 NEW_SIMPLE_ATTRIB 1 @9 UNIQUE_ID 1 0 1 665582219 #
simple-snl-attrib $-1 -1 $-1 $296 $151 1 1 1 1 1 1 1 1 1 1 1 1 0 1 0 1 1 1 @17 NEW_SIMPLE_ATTRIB 1 @13 MERGE_PARTNER 0 4 1165454505 1 11 0 #
simple-snl-attrib $-1 -1 $-1 $298 $157 1 1 1 1 1 1 1 1 1 1 1 1 0 1 0 1 1 1 @17 NEW_SIMPLE_ATTRIB 1 @13 MERGE_PARTNER 0 4 83040825 1 19 1 #
simple-snl-attrib $-1 -1 $354 $299 $207 1 1 1 1 1 1 1 1 1 1 1 1 0 1 0 1 1 1 @17 NEW_SIMPLE_ATTRIB 1 @9 ENTITY_ID 0 3 4 -2147483648 -1 #
simple-snl-attrib $-1 -1 $355 $300 $159 1 1 1 1 1 1 1 1 1 1 1 1 0 1 0 1 1 1 @17 NEW_SIMPLE_ATTRIB 1 @9 ENTITY_ID 0 3 12 258156022 0 #
simple-snl-attrib $-1 -1 $-1 $301 $119 1 1 1 1 1 1 1 1 1 1 1 1 0 1 0 1 1 1 @17 NEW_SIMPLE_ATTRIB 1 @13 MERGE_PARTNER 0 4 412913886 -1 17 0 #
simple-snl-attrib $-1 -1 $-1 $302 $161 1 1 1 1 1 1 1 1 1 1 1 1 0 1 0 1 1 1 @17 NEW_SIMPLE_ATTRIB 1 @13 MERGE_PARTNER 0 4 258156022 1 24 1 #
simple-snl-attrib $-1 -1 $-1 $303 $162 1 1 1 1 1 1 1 1 1 1 1 1 0 1 0 1 1 1 @17 NEW_SIMPLE_ATTRIB 1 @13 MERGE_PARTNER 0 4 975226171 1 16 0 #
simple-snl-attrib $-1 -1 $356 $305 $267 1 1 1 1 1 1 1 1 1 1 1 1 0 1 0 1 1 1 @17 NEW_SIMPLE_ATTRIB 1 @9 UNIQUE_ID 1 0 1 304775187 #
simple-snl-attrib $-1 -1 $357 $307 $219 1 1 1 1 1 1 1 1 1 1 1 1 0 1 0 1 1 1 @17 NEW_SIMPLE_ATTRIB 1 @9 ENTITY_ID 0 3 9 131303302 0 #
simple-snl-attrib $-1 -1 $358 $308 $269 1 1 1 1 1 1 1 1 1 1 1 1 0 1 0 1 1 1 @17 NEW_SIMPLE_ATTRIB 1 @9 UNIQUE_ID 1 0 1 131303302 #
simple-snl-attrib $-1 -1 $359 $310 $270 1 1 1 1 1 1 1 1 1 1 1 1 0 1 0 1 1 1 @17 NEW_SIMPLE_ATTRIB 1 @9 UNIQUE_ID 1 0 1 556395531 #
simple-snl-attrib $-1 -1 $-1 $312 $170 1 1 1 1 1 1 1 1 1 1 1 1 0 1 0 1 1 1 @17 NEW_SIMPLE_ATTRIB 1 @13 MERGE_PARTNER 0 4 463383309 1 26 1 #
simple-snl-attrib $-1 -1 $-1 $314 $172 1 1 1 1 1 1 1 1 1 1 1 1 0 1 0 1 1 1 @17 NEW_SIMPLE_ATTRIB 1 @13 MERGE_PARTNER 0 4 1875228172 1 25 1 #
simple-snl-attrib $-1 -1 $-1 $315 $173 1 1 1 1 1 1 1 1 1 1 1 1 0 1 0 1 1 1 @17 NEW_SIMPLE_ATTRIB 1 @13 MERGE_PARTNER 0 4 665582219 1 26 1 #
simple-snl-attrib $-1 -1 $-1 $316 $180 1 1 1 1 1 1 1 1 1 1 1 1 0 1 0 1 1 1 @17 NEW_SIMPLE_ATTRIB 1 @13 MERGE_PARTNER 0 4 304775187 1 13 0 #
simple-snl-attrib $-1 -1 $-1 $318 $182 1 1 1 1 1 1 1 1 1 1 1 1 0 1 0 1 1 1 @17 NEW_SIMPLE_ATTRIB 1 @13 MERGE_PARTNER 0 4 131303302 1 7 0 #
simple-snl-attrib $-1 -1 $-1 $319 $183 1 1 1 1 1 1 1 1 1 1 1 1 0 1 0 1 1 1 @17 NEW_SIMPLE_ATTRIB 1 @13 MERGE_PARTNER 0 4 556395531 1 10 0 #
simple-snl-attrib $-1 -1 $360 $320 $185 1 1 1 1 1 1 1 1 1 1 1 1 0 1 0 1 1 1 @17 NEW_SIMPLE_ATTRIB 1 @9 ENTITY_ID 0 3 12 258156022 0 #
simple-snl-attrib $-1 -1 $-1 $321 $140 1 1 1 1 1 1 1 1 1 1 1 1 0 1 0 1 1 1 @17 NEW_SIMPLE_ATTRIB 1 @13 MERGE_PARTNER 0 4 412913886 1 3 1 #
simple-snl-attrib $-1 -1 $-1 $322 $187 1 1 1 1 1 1 1 1 1 1 1 1 0 1 0 1 1 1 @17 NEW_SIMPLE_ATTRIB 1 @13 MERGE_PARTNER 0 4 975226171 1 3 1 #
simple-snl-attrib $-1 -1 $-1 $323 $188 1 1 1 1 1 1 1 1 1 1 1 1 0 1 0 1 1 1 @17 NEW_SIMPLE_ATTRIB 1 @13 MERGE_PARTNER 0 4 258156022 1 3 0 #
simple-snl-attrib $-1 -1 $361 $325 $251 1 1 1 1 1 1 1 1 1 1 1 1 0 1 0 1 1 1 @17 NEW_SIMPLE_ATTRIB 1 @9 ENTITY_ID 0 3 8 665582219 0 #
simple-snl-attrib $-1 -1 $-1 $326 $200 1 1 1 1 1 1 1 1 1 1 1 1 0 1 0 1 1 1 @17 NEW_SIMPLE_ATTRIB 1 @13 MERGE_PARTNER 0 4 512787678 1 13 0 #
simple-snl-attrib $-1 -1 $362 $327 $253 1 1 1 1 1 1 1 1 1 1 1 1 0 1 0 1 1 1 @17 NEW_SIMPLE_ATTRIB 1 @9 ENTITY_ID 0 3 7 -2147483648 -1 #
simple-snl-attrib $-1 -1 $363 $328 $254 1 1 1 1 1 1 1 1 1 1 1 1 0 1 0 1 1 1 @17 NEW_SIMPLE_ATTRIB 1 @9 ENTITY_ID 0 3 8 -2147483648 -1 #
simple-snl-attrib $-1 -1 $-1 $331 $207 1 1 1 1 1 1 1 1 1 1 1 1 0 1 0 1 1 1 @17 NEW_SIMPLE_ATTRIB 1 @13 MERGE_PARTNER 0 4 1165454505 1 19 1 #
simple-snl-attrib $-1 -1 $-1 $332 $159 1 1 1 1 1 1 1 1 1 1 1 1 0 1 0 1 1 1 @17 NEW_SIMPLE_ATTRIB 1 @13 MERGE_PARTNER 0 4 145754622 -1 18 0 #
simple-snl-attrib $-1 -1 $364 $336 $267 1 1 1 1 1 1 1 1 1 1 1 1 0 1 0 1 1 1 @17 NEW_SIMPLE_ATTRIB 1 @9 ENTITY_ID 0 3 10 556395531 0 #
simple-snl-attrib $-1 -1 $-1 $337 $219 1 1 1 1 1 1 1 1 1 1 1 1 0 1 0 1 1 1 @17 NEW_SIMPLE_ATTRIB 1 @13 MERGE_PARTNER 0 4 1519008226 1 27 1 #
simple-snl-attrib $-1 -1 $365 $338 $269 1 1 1 1 1 1 1 1 1 1 1 1 0 1 0 1 1 1 @17 NEW_SIMPLE_ATTRIB 1 @9 ENTITY_ID 0 3 9 -2147483648 -1 #
simple-snl-attrib $-1 -1 $366 $339 $270 1 1 1 1 1 1 1 1 1 1 1 1 0 1 0 1 1 1 @17 NEW_SIMPLE_ATTRIB 1 @9 ENTITY_ID 0 3 10 -2147483648 -1 #
simple-snl-attrib $-1 -1 $-1 $346 $185 1 1 1 1 1 1 1 1 1 1 1 1 0 1 0 1 1 1 @17 NEW_SIMPLE_ATTRIB 1 @13 MERGE_PARTNER 0 4 145754622 1 12 1 #
simple-snl-attrib $-1 -1 $-1 $350 $251 1 1 1 1 1 1 1 1 1 1 1 1 0 1 0 1 1 1 @17 NEW_SIMPLE_ATTRIB 1 @13 MERGE_PARTNER 0 4 463383309 1 13 0 #
simple-snl-attrib $-1 -1 $-1 $352 $253 1 1 1 1 1 1 1 1 1 1 1 1 0 1 0 1 1 1 @17 NEW_SIMPLE_ATTRIB 1 @13 MERGE_PARTNER 0 4 1875228172 1 11 0 #
simple-snl-attrib $-1 -1 $-1 $353 $254 1 1 1 1 1 1 1 1 1 1 1 1 0 1 0 1 1 1 @17 NEW_SIMPLE_ATTRIB 1 @13 MERGE_PARTNER 0 4 665582219 1 11 0 #
simple-snl-attrib $-1 -1 $-1 $356 $267 1 1 1 1 1 1 1 1 1 1 1 1 0 1 0 1 1 1 @17 NEW_SIMPLE_ATTRIB 1 @13 MERGE_PARTNER 0 4 304775187 1 28 1 #
simple-snl-attrib $-1 -1 $-1 $358 $269 1 1 1 1 1 1 1 1 1 1 1 1 0 1 0 1 1 1 @17 NEW_SIMPLE_ATTRIB 1 @13 MERGE_PARTNER 0 4 131303302 1 27 1 #
simple-snl-attrib $-1 -1 $-1 $359 $270 1 1 1 1 1 1 1 1 1 1 1 1 0 1 0 1 1 1 @17 NEW_SIMPLE_ATTRIB 1 @13 MERGE_PARTNER 0 4 556395531 1 28 1 #
End-of-ACIS-data 